<svg width="36" height="36" viewBox="0 0 36 36" fill="none" xmlns="http://www.w3.org/2000/svg">
<path d="M2 18C2 9.16344 9.16344 2 18 2V2C26.8366 2 34 9.16344 34 18V18C34 26.8366 26.8366 34 18 34V34C9.16344 34 2 26.8366 2 18V18Z" fill="#007A3E" fill-opacity="0.1"/>
<path d="M18.6665 11.3333H13.9998C13.6462 11.3333 13.3071 11.4738 13.057 11.7239C12.807 11.9739 12.6665 12.3131 12.6665 12.6667V23.3333C12.6665 23.687 12.807 24.0261 13.057 24.2762C13.3071 24.5262 13.6462 24.6667 13.9998 24.6667H21.9998C22.3535 24.6667 22.6926 24.5262 22.9426 24.2762C23.1927 24.0261 23.3332 23.687 23.3332 23.3333V16M18.6665 11.3333L23.3332 16M18.6665 11.3333V16H23.3332" stroke="#005C3E" stroke-width="1.33333" stroke-linecap="round" stroke-linejoin="round"/>
<path d="M18 32C10.268 32 4 25.732 4 18H0C0 27.9411 8.05887 36 18 36V32ZM32 18C32 25.732 25.732 32 18 32V36C27.9411 36 36 27.9411 36 18H32ZM18 4C25.732 4 32 10.268 32 18H36C36 8.05887 27.9411 0 18 0V4ZM18 0C8.05887 0 0 8.05887 0 18H4C4 10.268 10.268 4 18 4V0Z" fill="#007A3E" fill-opacity="0.05"/>
</svg>
